{"title":"Zombieland.avi","uid":15284187,"size":2704431306,"categoryP":"video","categoryS":"movies","magnet":"?xt=urn:btih:23e6da616286eeb834bedb15d3cb544ff29a9504&amp;dn=Zombieland.avi&amp;tr=udp%3A%2F%2Ftracker.leechers-paradise.org%3A6969&amp;tr=udp%3A%2F%2Fzer0day.ch%3A1337&amp;tr=udp%3A%2F%2Fopen.demonii.com%3A1337&amp;tr=udp%3A%2F%2Ftracker.coppersurfer.tk%3A6969&amp;tr=udp%3A%2F%2Fexodus.desync.com%3A6969","seeders":1,"leechers":0,"uploader":"sl1pstar","files":1,"time":1468364834,"description":"Zombieland BlueRay Rip\r\n\r\nFormat                                   : AVI\r\nFormat/Info                              : Audio Video Interleave\r\nFormat profile                           : OpenDML\r\nFile size                                : 2.52 GiB\r\nDuration                                 : 1h 27mn\r\nOverall bit rate mode                    : Variable\r\nOverall bit rate                         : 4 111 Kbps\r\nMovie name                               : ZOMBIELAND.Title1\r\nWriting application                      : Lavf54.63.104\r\nOriginal source form/Name                : ZOMBIELAND\r\n\r\nVideo\r\nFormat                                   : AVC\r\nFormat/Info                              : Advanced Video Codec\r\nFormat profile                           :   \r\nFormat settings, CABAC                   : Yes\r\nFormat settings, ReFrames                : 2 frames\r\nFormat settings, GOP                     : M=1, N=24\r\nCodec ID                                 : H264\r\nDuration                                 : 1h 27mn\r\nBit rate mode                            : Variable\r\nBit rate                                 : 3 653 Kbps\r\nMaximum bit rate                         : 5 524 Kbps\r\nWidth                                    : 1 920 pixels\r\nHeight                                   : 800 pixels\r\nDisplay aspect ratio                     : 2.40:1\r\nFrame rate                               : 23.976 (24000/1001) fps\r\nColor space                              : YUV\r\nChroma subsampling                       : 4:2:0\r\nBit depth                                : 8 bits\r\nScan type                                : Progressive\r\nBits/(Pixel*Frame)                       : 0.099\r\nStream size                              : 2.24 GiB (89%)\r\n\r\nAudio\r\nID                                       : 1\r\nFormat                                   : AC-3\r\nFormat/Info                              : Audio Coding 3\r\nMode extension                           : CM (complete main)\r\nFormat settings, Endianness              : Big\r\nCodec ID                                 : 2000\r\nDuration                                 : 1h 27mn\r\nBit rate mode                            : Constant\r\nBit rate                                 : 448 Kbps\r\nChannel(s)                               : 6 channels\r\nChannel positions                        : Front: L C R, Side: L R, LFE\r\nSampling rate                            : 48.0 KHz\r\nFrame rate                               : 31.250 fps (1536 spf)\r\nCompression mode                         : Lossy\r\nStream size                              : 281 MiB (11%)\r\nAlignment                                : Aligned on interleaves\r\nInterleave, duration                     : 32 ms (0.77 video frame)","torrent":{"xt":"urn:btih:23e6da616286eeb834bedb15d3cb544ff29a9504","amp;dn":"Zombieland.avi","amp;tr":["udp%3A%2F%2Ftracker.leechers-paradise.org%3A6969","udp%3A%2F%2Fzer0day.ch%3A1337","udp%3A%2F%2Fopen.demonii.com%3A1337","udp%3A%2F%2Ftracker.coppersurfer.tk%3A6969","udp%3A%2F%2Fexodus.desync.com%3A6969"],"infoHash":"23e6da616286eeb834bedb15d3cb544ff29a9504","infoHashBuffer":{"type":"Buffer","data":[35,230,218,97,98,134,238,184,52,190,219,21,211,203,84,79,242,154,149,4]},"announce":[],"urlList":[]}}